<svg width="30" height="30" viewBox="0 0 30 30" fill="none" xmlns="http://www.w3.org/2000/svg">
<g clip-path="url(#clip0_14_310)">
<path d="M4.545 14.1162C4.31066 14.3507 4.17902 14.6685 4.17902 15C4.17902 15.3315 4.31066 15.6493 4.545 15.8837L11.6162 22.955C11.852 23.1827 12.1678 23.3087 12.4955 23.3058C12.8232 23.303 13.1368 23.1715 13.3685 22.9398C13.6003 22.708 13.7317 22.3945 13.7346 22.0667C13.7374 21.739 13.6114 21.4233 13.3837 21.1875L8.44625 16.25H25C25.3315 16.25 25.6495 16.1183 25.8839 15.8839C26.1183 15.6495 26.25 15.3315 26.25 15C26.25 14.6685 26.1183 14.3505 25.8839 14.1161C25.6495 13.8817 25.3315 13.75 25 13.75H8.44625L13.3837 8.8125C13.6114 8.57674 13.7374 8.26099 13.7346 7.93324C13.7317 7.6055 13.6003 7.29198 13.3685 7.06022C13.1368 6.82846 12.8232 6.697 12.4955 6.69415C12.1678 6.69131 11.852 6.8173 11.6162 7.045L4.545 14.1162Z" fill="white"/>
</g>
<defs>
<clipPath id="clip0_14_310">
<rect width="30" height="30" fill="white"/>
</clipPath>
</defs>
</svg>
