<svg width="45" height="45" viewBox="0 0 45 45" fill="none" xmlns="http://www.w3.org/2000/svg">
<g clip-path="url(#clip0_7_148)">
<path fill-rule="evenodd" clip-rule="evenodd" d="M19.6943 0.443245C19.0783 0.237653 18.4252 0.167802 17.7797 0.238488C17.1342 0.309174 16.5116 0.518723 15.9547 0.852745L6.68475 6.41475C6.0184 6.81456 5.46695 7.38011 5.08408 8.05634C4.70122 8.73256 4.49999 9.49641 4.5 10.2735V40.5H2.25C1.65326 40.5 1.08097 40.737 0.65901 41.159C0.237053 41.581 0 42.1533 0 42.75C0 43.3467 0.237053 43.919 0.65901 44.341C1.08097 44.7629 1.65326 45 2.25 45H42.75C43.3467 45 43.919 44.7629 44.341 44.341C44.7629 43.919 45 43.3467 45 42.75C45 42.1533 44.7629 41.581 44.341 41.159C43.919 40.737 43.3467 40.5 42.75 40.5H40.5V10.62C40.4994 9.6762 40.2022 8.75647 39.6502 7.99091C39.0982 7.22535 38.3195 6.65271 37.4242 6.354L19.6943 0.443245ZM15.75 6.22575L9 10.2757V40.5H15.75V6.2235V6.22575Z" fill="url(#paint0_linear_7_148)"/>
</g>
<defs>
<linearGradient id="paint0_linear_7_148" x1="10" y1="6" x2="39" y2="45" gradientUnits="userSpaceOnUse">
<stop stop-color="#93DE81"/>
<stop offset="1" stop-color="#247B0E"/>
</linearGradient>
<clipPath id="clip0_7_148">
<rect width="45" height="45" fill="white"/>
</clipPath>
</defs>
</svg>
