<svg width="45" height="49" viewBox="0 0 45 49" fill="none" xmlns="http://www.w3.org/2000/svg">
<g clip-path="url(#clip0_7_133)">
<path d="M9.375 13.125C9.375 16.606 10.7578 19.9444 13.2192 22.4058C15.6806 24.8672 19.019 26.25 22.5 26.25C25.981 26.25 29.3194 24.8672 31.7808 22.4058C34.2422 19.9444 35.625 16.606 35.625 13.125C35.625 9.64403 34.2422 6.30564 31.7808 3.84422C29.3194 1.38281 25.981 0 22.5 0C19.019 0 15.6806 1.38281 13.2192 3.84422C10.7578 6.30564 9.375 9.64403 9.375 13.125ZM41.25 48.75H1.875C1.37772 48.75 0.900806 48.5525 0.549175 48.2008C0.197544 47.8492 0 47.3723 0 46.875V41.25C0 38.7636 0.98772 36.379 2.74587 34.6209C4.50403 32.8627 6.8886 31.875 9.375 31.875H35.625C38.1114 31.875 40.496 32.8627 42.2541 34.6209C44.0123 36.379 45 38.7636 45 41.25V46.875C45 47.3723 44.8025 47.8492 44.4508 48.2008C44.0992 48.5525 43.6223 48.75 43.125 48.75H41.25Z" fill="url(#paint0_linear_7_133)"/>
</g>
<defs>
<linearGradient id="paint0_linear_7_133" x1="14" y1="5" x2="45" y2="45.5" gradientUnits="userSpaceOnUse">
<stop stop-color="#C0D2FF"/>
<stop offset="1" stop-color="#4B66F3"/>
</linearGradient>
<clipPath id="clip0_7_133">
<rect width="45" height="48.75" fill="white"/>
</clipPath>
</defs>
</svg>
