<svg width="161" height="44" viewBox="0 0 161 44" fill="none" xmlns="http://www.w3.org/2000/svg">
<g filter="url(#filter0_d_7_107)">
<path d="M19.1549 3L27.0423 16.5L22.8169 19.875L19.7183 15.375L7.04225 39H0L19.1549 3Z" fill="url(#paint0_linear_7_107)"/>
<path d="M29.5775 20.4375L23.0986 24.9375L26.1972 30L27.6056 28.875L29.8592 32.5312H13.5211L10.1408 38.7188H40L29.5775 20.4375Z" fill="url(#paint1_linear_7_107)"/>
</g>
<line x1="48.5" y1="13.5" x2="48.5" y2="28.5" stroke="white"/>
<path d="M57.708 18V8.2H58.31L62.86 16.054H62.538L67.074 8.2H67.662L67.676 18H66.976L66.962 9.278H67.158L62.86 16.698H62.51L58.198 9.278H58.408V18H57.708ZM71.7228 12.708H77.0288V13.338H71.7228V12.708ZM71.8068 17.356H77.8548V18H71.0928V8.2H77.6448V8.844H71.8068V17.356ZM80.458 18V8.2H84.336C85.372 8.2 86.282 8.41 87.066 8.83C87.85 9.25 88.4567 9.82867 88.886 10.566C89.3247 11.3033 89.544 12.148 89.544 13.1C89.544 14.052 89.3247 14.8967 88.886 15.634C88.4567 16.3713 87.85 16.95 87.066 17.37C86.282 17.79 85.372 18 84.336 18H80.458ZM81.172 17.356H84.28C85.204 17.356 86.0067 17.174 86.688 16.81C87.3693 16.446 87.8967 15.9467 88.27 15.312C88.6433 14.668 88.83 13.9307 88.83 13.1C88.83 12.2693 88.6433 11.5367 88.27 10.902C87.8967 10.258 87.3693 9.754 86.688 9.39C86.0067 9.026 85.204 8.844 84.28 8.844H81.172V17.356ZM92.0244 18V8.2H92.7384V18H92.0244ZM94.5153 18L99.0233 8.2H99.7373L104.245 18H103.475L99.2193 8.648H99.5273L95.2853 18H94.5153ZM96.1673 15.242L96.4053 14.64H102.271L102.509 15.242H96.1673ZM106.024 18V8.2H110.112C111.167 8.2 111.993 8.41467 112.59 8.844C113.188 9.27333 113.486 9.894 113.486 10.706C113.486 11.238 113.36 11.686 113.108 12.05C112.856 12.414 112.506 12.6893 112.058 12.876C111.62 13.0533 111.125 13.142 110.574 13.142L110.826 12.862C111.498 12.862 112.072 12.96 112.548 13.156C113.024 13.352 113.384 13.6367 113.626 14.01C113.878 14.3833 114.004 14.85 114.004 15.41C114.004 16.2313 113.706 16.8707 113.108 17.328C112.511 17.776 111.606 18 110.392 18H106.024ZM106.738 17.384H110.392C111.335 17.384 112.054 17.2253 112.548 16.908C113.043 16.5813 113.29 16.0633 113.29 15.354C113.29 14.654 113.043 14.1453 112.548 13.828C112.054 13.5013 111.335 13.338 110.392 13.338H106.654V12.722H110.084C110.934 12.722 111.592 12.5587 112.058 12.232C112.525 11.9053 112.758 11.4153 112.758 10.762C112.758 10.118 112.525 9.63267 112.058 9.306C111.592 8.97933 110.934 8.816 110.084 8.816H106.738V17.384ZM120.388 18.07C119.174 18.07 118.218 17.7153 117.518 17.006C116.818 16.2967 116.468 15.242 116.468 13.842V8.2H117.182V13.814C117.182 15.0367 117.462 15.942 118.022 16.53C118.582 17.118 119.375 17.412 120.402 17.412C121.419 17.412 122.208 17.118 122.768 16.53C123.328 15.942 123.608 15.0367 123.608 13.814V8.2H124.322V13.842C124.322 15.242 123.972 16.2967 123.272 17.006C122.572 17.7153 121.61 18.07 120.388 18.07ZM129.827 18V14.444L129.995 14.906L125.879 8.2H126.663L130.401 14.29H130.009L133.747 8.2H134.489L130.373 14.906L130.541 14.444V18H129.827ZM136.034 18V8.2H136.748V18H136.034ZM140.163 18V8.2H140.765L147.751 17.118H147.429V8.2H148.143V18H147.555L140.555 9.082H140.877V18H140.163ZM155.751 18.07C155.014 18.07 154.333 17.9487 153.707 17.706C153.082 17.454 152.536 17.104 152.069 16.656C151.612 16.208 151.257 15.6853 151.005 15.088C150.753 14.4813 150.627 13.8187 150.627 13.1C150.627 12.3813 150.753 11.7233 151.005 11.126C151.257 10.5193 151.617 9.992 152.083 9.544C152.55 9.096 153.091 8.75067 153.707 8.508C154.333 8.256 155.019 8.13 155.765 8.13C156.475 8.13 157.133 8.242 157.739 8.466C158.346 8.69 158.864 9.026 159.293 9.474L158.845 9.95C158.416 9.53 157.945 9.23133 157.431 9.054C156.927 8.87667 156.377 8.788 155.779 8.788C155.145 8.788 154.557 8.89533 154.015 9.11C153.474 9.32467 153.003 9.628 152.601 10.02C152.2 10.412 151.887 10.8693 151.663 11.392C151.449 11.9147 151.341 12.484 151.341 13.1C151.341 13.716 151.449 14.2853 151.663 14.808C151.887 15.3307 152.2 15.788 152.601 16.18C153.003 16.572 153.474 16.8753 154.015 17.09C154.557 17.3047 155.145 17.412 155.779 17.412C156.358 17.412 156.904 17.3233 157.417 17.146C157.94 16.9687 158.416 16.6747 158.845 16.264L159.251 16.81C158.813 17.23 158.285 17.5473 157.669 17.762C157.063 17.9673 156.423 18.07 155.751 18.07ZM158.565 16.74V13.142H159.251V16.81L158.565 16.74ZM56.07 35L60.578 25.2H61.292L65.8 35H65.03L60.774 25.648H61.082L56.84 35H56.07ZM57.722 32.242L57.96 31.64H63.826L64.064 32.242H57.722ZM71.6284 35.07C70.891 35.07 70.2097 34.9487 69.5844 34.706C68.959 34.454 68.413 34.104 67.9464 33.656C67.489 33.208 67.1344 32.6853 66.8824 32.088C66.6304 31.4813 66.5044 30.8187 66.5044 30.1C66.5044 29.3813 66.6304 28.7233 66.8824 28.126C67.1344 27.5193 67.4937 26.992 67.9604 26.544C68.427 26.096 68.9684 25.7507 69.5844 25.508C70.2097 25.256 70.8957 25.13 71.6424 25.13C72.3517 25.13 73.0097 25.242 73.6164 25.466C74.223 25.69 74.741 26.026 75.1704 26.474L74.7224 26.95C74.293 26.53 73.8217 26.2313 73.3084 26.054C72.8044 25.8767 72.2537 25.788 71.6564 25.788C71.0217 25.788 70.4337 25.8953 69.8924 26.11C69.351 26.3247 68.8797 26.628 68.4784 27.02C68.077 27.412 67.7644 27.8693 67.5404 28.392C67.3257 28.9147 67.2184 29.484 67.2184 30.1C67.2184 30.716 67.3257 31.2853 67.5404 31.808C67.7644 32.3307 68.077 32.788 68.4784 33.18C68.8797 33.572 69.351 33.8753 69.8924 34.09C70.4337 34.3047 71.0217 34.412 71.6564 34.412C72.235 34.412 72.781 34.3233 73.2944 34.146C73.817 33.9687 74.293 33.6747 74.7224 33.264L75.1284 33.81C74.6897 34.23 74.1624 34.5473 73.5464 34.762C72.9397 34.9673 72.3004 35.07 71.6284 35.07ZM74.4424 33.74V30.142H75.1284V33.81L74.4424 33.74ZM78.9005 29.708H84.2065V30.338H78.9005V29.708ZM78.9845 34.356H85.0325V35H78.2705V25.2H84.8225V25.844H78.9845V34.356ZM87.6357 35V25.2H88.2377L95.2237 34.118H94.9017V25.2H95.6157V35H95.0277L88.0277 26.082H88.3497V35H87.6357ZM103.182 35.07C102.454 35.07 101.777 34.9487 101.152 34.706C100.536 34.454 99.9994 34.104 99.5421 33.656C99.0847 33.208 98.7301 32.6853 98.4781 32.088C98.2261 31.4813 98.1001 30.8187 98.1001 30.1C98.1001 29.3813 98.2261 28.7233 98.4781 28.126C98.7301 27.5193 99.0847 26.992 99.5421 26.544C100.009 26.096 100.55 25.7507 101.166 25.508C101.782 25.256 102.454 25.13 103.182 25.13C103.873 25.13 104.517 25.242 105.114 25.466C105.721 25.69 106.239 26.0307 106.668 26.488L106.22 26.95C105.8 26.5393 105.333 26.2453 104.82 26.068C104.316 25.8813 103.779 25.788 103.21 25.788C102.585 25.788 102.001 25.8953 101.46 26.11C100.928 26.3247 100.461 26.628 100.06 27.02C99.6681 27.412 99.3601 27.8693 99.1361 28.392C98.9214 28.9147 98.8141 29.484 98.8141 30.1C98.8141 30.716 98.9214 31.2853 99.1361 31.808C99.3601 32.3307 99.6681 32.788 100.06 33.18C100.461 33.572 100.928 33.8753 101.46 34.09C102.001 34.3047 102.585 34.412 103.21 34.412C103.779 34.412 104.316 34.3233 104.82 34.146C105.333 33.9593 105.8 33.656 106.22 33.236L106.668 33.698C106.239 34.1553 105.721 34.5007 105.114 34.734C104.517 34.958 103.873 35.07 103.182 35.07ZM111.137 35V31.444L111.305 31.906L107.189 25.2H107.973L111.711 31.29H111.319L115.057 25.2H115.799L111.683 31.906L111.851 31.444V35H111.137Z" fill="white"/>
<defs>
<filter id="filter0_d_7_107" x="-4" y="0" width="48" height="44" filterUnits="userSpaceOnUse" color-interpolation-filters="sRGB">
<feFlood flood-opacity="0" result="BackgroundImageFix"/>
<feColorMatrix in="SourceAlpha" type="matrix" values="0 0 0 0 0 0 0 0 0 0 0 0 0 0 0 0 0 0 127 0" result="hardAlpha"/>
<feOffset dy="1"/>
<feGaussianBlur stdDeviation="2"/>
<feComposite in2="hardAlpha" operator="out"/>
<feColorMatrix type="matrix" values="0 0 0 0 0 0 0 0 0 0 0 0 0 0 0 0 0 0 0.25 0"/>
<feBlend mode="normal" in2="BackgroundImageFix" result="effect1_dropShadow_7_107"/>
<feBlend mode="normal" in="SourceGraphic" in2="effect1_dropShadow_7_107" result="shape"/>
</filter>
<linearGradient id="paint0_linear_7_107" x1="19.2594" y1="8.49389" x2="19.2594" y2="32.1176" gradientUnits="userSpaceOnUse">
<stop stop-color="#FFE88F"/>
<stop offset="1" stop-color="#AD7B00"/>
</linearGradient>
<linearGradient id="paint1_linear_7_107" x1="19.2594" y1="8.49389" x2="19.2594" y2="32.1176" gradientUnits="userSpaceOnUse">
<stop stop-color="#FFE88F"/>
<stop offset="1" stop-color="#AD7B00"/>
</linearGradient>
</defs>
</svg>
