<svg width="45" height="45" viewBox="0 0 45 45" fill="none" xmlns="http://www.w3.org/2000/svg">
<g clip-path="url(#clip0_7_159)">
<path d="M41.3581 17.248C41.2924 17.1485 41.2053 17.0649 41.1033 17.0032C41.0012 16.9415 40.8867 16.9033 40.768 16.8914C40.6493 16.8795 40.5295 16.8941 40.4172 16.9343C40.3049 16.9744 40.2029 17.0391 40.1187 17.1235L24.9687 32.2735C24.6621 32.546 24.2628 32.691 23.8528 32.6786C23.4428 32.6663 23.053 32.4976 22.7633 32.2072C22.4736 31.9167 22.306 31.5265 22.2948 31.1164C22.2835 30.7064 22.4295 30.3075 22.7028 30.0016L41.324 11.3825C41.4733 11.2332 41.5917 11.0559 41.6725 10.8608C41.7533 10.6658 41.7949 10.4567 41.7949 10.2455C41.7949 10.0344 41.7533 9.82529 41.6725 9.63021C41.5917 9.43513 41.4733 9.25788 41.324 9.10857C41.1747 8.95927 40.9974 8.84083 40.8023 8.76003C40.6073 8.67922 40.3982 8.63763 40.187 8.63763C39.9759 8.63763 39.7668 8.67922 39.5717 8.76003C39.3766 8.84083 39.1994 8.95927 39.0501 9.10857L36.3623 11.7983C32.5266 8.80259 27.8232 7.13087 22.9573 7.03375C18.0913 6.93663 13.325 8.41934 9.37275 11.2596C5.42055 14.0999 2.49544 18.1447 1.03593 22.7876C-0.423569 27.4305 -0.338828 32.4215 1.27745 37.0122C1.4989 37.6416 1.90971 38.1871 2.45352 38.5737C2.99732 38.9603 3.64746 39.1692 4.31469 39.1716H40.6872C41.3537 39.172 42.0039 38.9652 42.5477 38.5797C43.0915 38.1943 43.502 37.6493 43.7224 37.0202C44.8679 33.7634 45.2504 30.287 44.8405 26.8591C44.4306 23.4311 43.2392 20.143 41.3581 17.248ZM8.32818 32.4242C8.41287 32.8419 8.32817 33.2761 8.09273 33.6313C7.85729 33.9865 7.49038 34.2337 7.07271 34.3184C6.96693 34.3399 6.85925 34.3507 6.75131 34.3506C6.38091 34.3501 6.02205 34.2217 5.73544 33.987C5.44883 33.7524 5.25207 33.426 5.17845 33.063C4.6038 30.2341 4.73016 27.3077 5.54649 24.5389C6.36283 21.7702 7.84435 19.2433 9.86176 17.1787C11.8792 15.1141 14.3712 13.5747 17.1203 12.6946C19.8695 11.8145 22.7923 11.6206 25.6336 12.1297C26.0531 12.2049 26.4257 12.4436 26.6692 12.7933C26.9127 13.1431 27.0074 13.5753 26.9323 13.9949C26.8571 14.4144 26.6184 14.7869 26.2687 15.0305C25.9189 15.274 25.4867 15.3686 25.0671 15.2935C22.742 14.8773 20.3504 15.0363 18.1008 15.7566C15.8513 16.477 13.8121 17.7368 12.1613 19.4263C10.5105 21.1157 9.29817 23.1834 8.63003 25.449C7.96189 27.7146 7.85826 30.1093 8.32818 32.4242Z" fill="url(#paint0_linear_7_159)"/>
</g>
<defs>
<linearGradient id="paint0_linear_7_159" x1="9.00003" y1="13" x2="45" y2="39" gradientUnits="userSpaceOnUse">
<stop stop-color="#C95D5D"/>
<stop offset="1" stop-color="#8B1F1F"/>
</linearGradient>
<clipPath id="clip0_7_159">
<rect width="45" height="45" fill="white"/>
</clipPath>
</defs>
</svg>
