<svg width="275" height="80" viewBox="0 0 275 80" fill="none" xmlns="http://www.w3.org/2000/svg">
<g clip-path="url(#clip0_111_17)">
<path d="M62.0082 31.0156L51.1545 38.1006L44.7359 27.3031L23.078 67.1897H66.4656L62.0082 58.3926L57.9619 60.9719L51.1545 49.2111L66.4656 39.4556L88.6558 79.9655H0.791138L44.7359 -3.8147e-06L62.0082 31.0156ZM88.6558 -3.8147e-06L75.3803 7.2772V40.1256L88.6558 63.3812V-3.8147e-06ZM109.932 33.0874H126.88C131.09 33.0874 132.534 31.9 133.73 30.6239C135.149 29.1137 135.78 27.0099 135.78 23.7803C135.78 20.5506 135.892 17.8358 133.551 15.5374C131.57 13.601 130.288 13.1527 125.927 13.1527H109.932V33.0874ZM127.858 -3.8147e-06C131.127 -3.8147e-06 136.592 0.549359 141.973 5.44682C147.57 10.5315 148.952 15.8798 148.952 23.1348C148.952 29.2148 148.442 33.2081 143.912 38.8224C139.703 44.0254 133.544 46.2696 127.415 46.1982L109.925 46.2696V79.9606H96.8079V-3.8147e-06H127.858ZM209.359 24.3641V21.504C209.359 17.454 208.334 12.1057 203.663 6.79436C198.993 1.48303 194.343 -3.8147e-06 182.877 -3.8147e-06C172.541 -3.8147e-06 157.233 2.95621 157.233 21.4079C157.233 29.2911 157.668 31.3851 163.352 37.1374C169.035 42.8897 181.305 44.6856 188.449 46.2696C195.593 47.8537 196.185 48.1099 196.185 56.6878C196.185 66.8424 192.906 66.7315 182.749 66.8424C173.814 66.9434 170.409 66.1526 170.409 59.1316V52.0613H157.23C157.23 66.8424 158.49 70.5377 162.269 74.4251C165.984 78.2361 170.407 79.9606 181.518 79.9606C188.107 79.9606 196.735 80.946 203.906 73.0628C206.519 70.1928 209.354 66.0787 209.354 55.5398C209.354 43.0006 206.333 40.7908 203.411 38.108C197.693 33.6565 190.232 33.4274 182.917 31.8261C169.948 28.8871 170.399 27.1183 170.399 21.4621C170.399 15.3033 173.178 13.165 182.867 13.165C193.818 13.165 196.175 15.5989 196.175 24.3715L209.359 24.3641ZM235.199 48.977V80L248.44 72.7548V49.2111L274.216 -3.8147e-06H259.165L241.846 33.0874L224.338 -3.8147e-06H209.352L235.199 48.977Z" fill="#FFDE00"/>
</g>
<defs>
<clipPath id="clip0_111_17">
<rect width="273.418" height="80" fill="white" transform="translate(0.791138)"/>
</clipPath>
</defs>
</svg>
