<svg width="48" height="48" viewBox="0 0 48 48" fill="none" xmlns="http://www.w3.org/2000/svg">
<path d="M22 6.00883V41.2888C22 42.5688 20.82 43.5288 19.58 43.2488C10.64 41.2488 4 33.2288 4 23.6488C4 14.0688 10.64 6.04883 19.58 4.04883C19.8721 3.98533 20.1747 3.98825 20.4656 4.05737C20.7564 4.12649 21.028 4.26005 21.2603 4.44819C21.4926 4.63633 21.6796 4.87425 21.8077 5.14436C21.9357 5.41448 22.0014 5.70991 22 6.00883ZM26.06 6.00883V19.6288C26.06 20.7288 26.96 21.6288 28.06 21.6288H41.64C42.92 21.6288 43.88 20.4488 43.6 19.1888C41.9 11.6688 36 5.74883 28.5 4.04883C27.24 3.76883 26.06 4.72883 26.06 6.00883ZM26.06 27.6688V41.2888C26.06 42.5688 27.24 43.5288 28.5 43.2488C36.02 41.5488 41.92 35.6088 43.62 28.0888C43.9 26.8488 42.92 25.6488 41.66 25.6488H28.08C26.96 25.6688 26.06 26.5688 26.06 27.6688Z" fill="url(#paint0_linear_14_366)"/>
<defs>
<linearGradient id="paint0_linear_14_366" x1="16.3412" y1="8.03053" x2="40.6644" y2="42.7803" gradientUnits="userSpaceOnUse">
<stop stop-color="#C0D2FF"/>
<stop offset="1" stop-color="#4B66F3"/>
</linearGradient>
</defs>
</svg>
