<svg width="38" height="38" viewBox="0 0 38 38" fill="none" xmlns="http://www.w3.org/2000/svg">
<g clip-path="url(#clip0_14_459)">
<path d="M37.4468 34.7482L34.749 37.446C34.3931 37.7999 33.9115 37.9985 33.4096 37.9985C32.9077 37.9985 32.4262 37.7999 32.0702 37.446L9.50002 14.9138C8.88226 15.093 8.24332 15.1889 7.60017 15.1988C6.39054 15.1979 5.19859 14.9083 4.12343 14.3541C3.04826 13.7998 2.12094 12.9969 1.41856 12.012C0.71618 11.0272 0.259037 9.88897 0.0851392 8.6919C-0.0887592 7.49484 0.0256109 6.27356 0.418741 5.12959L5.24436 9.95521L6.25128 8.94829L8.94906 6.2505L9.95598 5.24358L5.13037 0.417967C6.27433 0.0248372 7.49561 -0.0895328 8.69268 0.0843655C9.88974 0.258264 11.028 0.715406 12.0128 1.41779C12.9976 2.12016 13.8006 3.04749 14.3548 4.12265C14.9091 5.19782 15.1987 6.38977 15.1996 7.5994C15.1896 8.24255 15.0938 8.88149 14.9146 9.49925L37.4468 32.0695C37.8007 32.4254 37.9993 32.9069 37.9993 33.4088C37.9993 33.9108 37.8007 34.3923 37.4468 34.7482ZM0.55173 32.0695C0.197881 32.4254 -0.000732422 32.9069 -0.000732422 33.4088C-0.000732422 33.9108 0.197881 34.3923 0.55173 34.7482L3.24952 37.446C3.60548 37.7999 4.087 37.9985 4.58891 37.9985C5.09082 37.9985 5.57234 37.7999 5.9283 37.446L16.3205 27.0729L10.9439 21.6963M34.1981 0L26.5987 3.7997V7.5994L22.476 11.7221L26.2757 15.5218L30.3984 11.3991H34.1981L37.9978 3.7997L34.1981 0Z" fill="url(#paint0_linear_14_459)"/>
</g>
<defs>
<linearGradient id="paint0_linear_14_459" x1="18.2957" y1="5.79888" x2="18.2957" y2="30.7341" gradientUnits="userSpaceOnUse">
<stop stop-color="#FFE88F"/>
<stop offset="1" stop-color="#AD7B00"/>
</linearGradient>
<clipPath id="clip0_14_459">
<rect width="38" height="37.9985" fill="white" transform="translate(-0.000732422)"/>
</clipPath>
</defs>
</svg>
