<svg width="45" height="48" viewBox="0 0 45 48" fill="none" xmlns="http://www.w3.org/2000/svg">
<g clip-path="url(#clip0_7_155)">
<path d="M44.8047 15.4897C45.1023 16.2986 44.8512 17.2004 44.2097 17.7769L40.1839 21.4401C40.2862 22.2118 40.3419 23.0021 40.3419 23.8017C40.3419 24.6012 40.2862 25.3915 40.1839 26.1632L44.2097 29.8264C44.8512 30.4029 45.1023 31.3048 44.8047 32.1136C44.3957 33.22 43.9029 34.28 43.3357 35.3027L42.8988 36.0558C42.2851 37.0785 41.5971 38.0455 40.844 38.9566C40.2955 39.626 39.3843 39.8492 38.5661 39.5888L33.3874 37.9432C32.1415 38.9008 30.7655 39.7004 29.2965 40.3048L28.1343 45.6136C27.9483 46.4597 27.2975 47.1291 26.4421 47.2686C25.1591 47.4824 23.8388 47.594 22.4907 47.594C21.1426 47.594 19.8223 47.4824 18.5393 47.2686C17.6839 47.1291 17.0331 46.4597 16.8471 45.6136L15.6849 40.3048C14.2159 39.7004 12.8399 38.9008 11.594 37.9432L6.42458 39.5981C5.6064 39.8585 4.69524 39.626 4.14669 38.9659C3.39359 38.0548 2.70558 37.0878 2.09194 36.0651L1.65496 35.312C1.08781 34.2893 0.595038 33.2293 0.185947 32.1229C-0.111573 31.314 0.13946 30.4122 0.780989 29.8357L4.80682 26.1725C4.70454 25.3915 4.64876 24.6012 4.64876 23.8017C4.64876 23.0021 4.70454 22.2118 4.80682 21.4401L0.780989 17.7769C0.13946 17.2004 -0.111573 16.2986 0.185947 15.4897C0.595038 14.3833 1.08781 13.3233 1.65496 12.3006L2.09194 11.5475C2.70558 10.5248 3.39359 9.55785 4.14669 8.64669C4.69524 7.97727 5.6064 7.75413 6.42458 8.01446L11.6033 9.66012C12.8492 8.70248 14.2252 7.90289 15.6942 7.29855L16.8564 1.98967C17.0424 1.14359 17.6932 0.474174 18.5485 0.334711C19.8316 0.11157 21.1519 0 22.5 0C23.8481 0 25.1684 0.11157 26.4514 0.325413C27.3068 0.464876 27.9576 1.1343 28.1436 1.98037L29.3058 7.28926C30.7748 7.8936 32.1508 8.69318 33.3967 9.65083L38.5754 8.00517C39.3936 7.74483 40.3047 7.97727 40.8533 8.6374C41.6064 9.54855 42.2944 10.5155 42.9081 11.5382L43.345 12.2913C43.9122 13.314 44.405 14.374 44.814 15.4804L44.8047 15.4897ZM22.5 31.2397C24.4727 31.2397 26.3646 30.456 27.7595 29.0611C29.1544 27.6662 29.938 25.7743 29.938 23.8017C29.938 21.829 29.1544 19.9371 27.7595 18.5422C26.3646 17.1473 24.4727 16.3636 22.5 16.3636C20.5273 16.3636 18.6354 17.1473 17.2405 18.5422C15.8456 19.9371 15.062 21.829 15.062 23.8017C15.062 25.7743 15.8456 27.6662 17.2405 29.0611C18.6354 30.456 20.5273 31.2397 22.5 31.2397Z" fill="url(#paint0_linear_7_155)"/>
</g>
<defs>
<linearGradient id="paint0_linear_7_155" x1="6.49999" y1="9" x2="38.5" y2="39" gradientUnits="userSpaceOnUse">
<stop stop-color="#E2CA6B"/>
<stop offset="1" stop-color="#987B0E"/>
</linearGradient>
<clipPath id="clip0_7_155">
<rect width="45" height="47.6033" fill="white"/>
</clipPath>
</defs>
</svg>
