<svg width="24" height="24" viewBox="0 0 24 24" fill="none" xmlns="http://www.w3.org/2000/svg">
<path d="M4.43998 4.44004C4.72123 4.15914 5.10248 4.00136 5.49998 4.00136C5.89748 4.00136 6.27873 4.15914 6.55998 4.44004L12 9.87804L17.44 4.44004C17.5792 4.30084 17.7444 4.19042 17.9263 4.11509C18.1082 4.03975 18.3031 4.00098 18.5 4.00098C18.6968 4.00098 18.8918 4.03975 19.0736 4.11509C19.2555 4.19042 19.4208 4.30084 19.56 4.44004C19.6992 4.57924 19.8096 4.7445 19.8849 4.92637C19.9603 5.10825 19.999 5.30318 19.999 5.50004C19.999 5.6969 19.9603 5.89184 19.8849 6.07371C19.8096 6.25559 19.6992 6.42084 19.56 6.56004L14.122 12L19.56 17.44C19.8411 17.7212 19.999 18.1025 19.999 18.5C19.999 18.8976 19.8411 19.2789 19.56 19.56C19.2789 19.8412 18.8976 19.9991 18.5 19.9991C18.1024 19.9991 17.7211 19.8412 17.44 19.56L12 14.122L6.55998 19.56C6.27885 19.8412 5.89756 19.9991 5.49998 19.9991C5.1024 19.9991 4.72111 19.8412 4.43998 19.56C4.15885 19.2789 4.00092 18.8976 4.00092 18.5C4.00092 18.1025 4.15885 17.7212 4.43998 17.44L9.87798 12L4.43998 6.56004C4.15908 6.27879 4.0013 5.89754 4.0013 5.50004C4.0013 5.10254 4.15908 4.72129 4.43998 4.44004Z" fill="url(#paint0_linear_21_401)"/>
<defs>
<linearGradient id="paint0_linear_21_401" x1="7.20054" y1="6.97278" x2="22.5817" y2="14.9073" gradientUnits="userSpaceOnUse">
<stop stop-color="#C95D5D"/>
<stop offset="1" stop-color="#8B1F1F"/>
</linearGradient>
</defs>
</svg>
